<svg width="64" height="64" viewBox="0 0 64 64" fill="none" xmlns="http://www.w3.org/2000/svg">
  <g id="Medium">
    <rect x="0.5" y="0.5" width="63" height="63" rx="7.5"/>
    <path id="Vector" d="M20.3333 32V53M43.6666 32V53" stroke="#A5A5A7" stroke-width="1.5" stroke-linecap="round" stroke-linejoin="round"/>
    <path id="Vector_2" d="M11 32H53" stroke="#A5A5A7" stroke-width="1.5" stroke-linecap="round" stroke-linejoin="round"/>
    <path id="Vector_3" d="M9.83325 36.0833C9.83325 27.5587 9.83325 23.2965 12.4302 20.6482C15.0272 18 19.207 18 27.5666 18H36.4333C44.7929 18 48.9726 18 51.5696 20.6482C54.1666 23.2965 54.1666 27.5587 54.1666 36.0833C54.1666 44.6079 54.1666 48.8702 51.5696 51.5183C48.9726 54.1667 44.7929 54.1667 36.4333 54.1667H27.5666C19.207 54.1667 15.0272 54.1667 12.4302 51.5183C9.83325 48.8702 9.83325 44.6079 9.83325 36.0833Z" stroke="#A5A5A7" stroke-width="1.5" stroke-linecap="round"/>
    <path id="Vector_4" d="M42.5 17.9999L42.2683 17.2788C41.1131 13.6853 40.5356 11.8886 39.1608 10.8609C37.7857 9.83325 35.9597 9.83325 32.3071 9.83325H31.6929C28.0403 9.83325 26.2142 9.83325 24.8393 10.8609C23.4643 11.8886 22.8868 13.6853 21.7318 17.2788L21.5 17.9999" stroke="#A5A5A7" stroke-width="1.5"/>
  </g>
</svg>
