<svg width="64" height="64" viewBox="0 0 64 64" fill="none" xmlns="http://www.w3.org/2000/svg">
<g id="Large">
<path id="Vector" d="M25 8.66675H39" stroke="#A5A5A7" stroke-width="1.5" stroke-linecap="round" stroke-linejoin="round"/>
<path id="Vector_2" d="M27.3333 8.66675V22.6667M36.6666 8.66675V22.6667" stroke="#A5A5A7" stroke-width="1.5" stroke-linecap="round" stroke-linejoin="round"/>
<path id="Vector_3" d="M23.8333 51.8333V55.3333H24.9999V51.8333" stroke="#A5A5A7" stroke-width="1.5" stroke-linecap="round" stroke-linejoin="round"/>
<path id="Vector_4" d="M40.1667 51.8333V55.3333H39V51.8333" stroke="#A5A5A7" stroke-width="1.5" stroke-linecap="round" stroke-linejoin="round"/>
<path id="Vector_5" d="M34.3333 51.8334H29.6667C24.167 51.8334 21.4171 51.8334 19.7085 50.1249C18 48.4162 18 45.6664 18 40.1667V34.3334C18 28.8337 18 26.0838 19.7085 24.3753C21.4171 22.6667 24.167 22.6667 29.6667 22.6667H34.3333C39.833 22.6667 42.5828 22.6667 44.2915 24.3753C46 26.0838 46 28.8337 46 34.3334V40.1667C46 45.6664 46 48.4162 44.2915 50.1249C42.5828 51.8334 39.833 51.8334 34.3333 51.8334Z" stroke="#A5A5A7" stroke-width="1.5" stroke-linecap="round" stroke-linejoin="round"/>
<path id="Vector_6" d="M27.3333 29.6667V44.8334" stroke="#A5A5A7" stroke-width="1.5" stroke-linecap="round" stroke-linejoin="round"/>
<path id="Vector_7" d="M36.6667 29.6667V44.8334" stroke="#A5A5A7" stroke-width="1.5" stroke-linecap="round" stroke-linejoin="round"/>
</g>
</svg>
