<svg width="64" height="64" viewBox="0 0 64 64" fill="none" xmlns="http://www.w3.org/2000/svg">
  <g id="Small">
    <rect width="64" height="64" rx="8"/>
    <path id="Vector" d="M11.1437 37.6963L11.996 32.6964C13.0032 26.7869 13.5069 23.8321 15.5012 22.0827C17.4957 20.3333 20.3606 20.3333 26.0904 20.3333H37.9096C43.6393 20.3333 46.5042 20.3333 48.4987 22.0827C50.493 23.8321 50.9965 26.7869 52.0038 32.6964L52.8562 37.6963C54.2499 45.8739 54.9469 49.9626 52.8009 52.6478C50.6549 55.3333 46.6904 55.3333 38.7617 55.3333H25.2382C17.3094 55.3333 13.345 55.3333 11.199 52.6478C9.05303 49.9626 9.74995 45.8739 11.1437 37.6963Z" stroke="#A5A5A7" stroke-width="1.5"/>
    <path id="Vector_2" d="M21.5 25.0001L22.0017 17.9764C22.3764 12.7309 26.7411 8.66675 32 8.66675C37.2589 8.66675 41.6236 12.7309 41.9983 17.9764L42.5 25.0001" stroke="#A5A5A7" stroke-width="1.5" stroke-linecap="round"/>
  </g>
</svg>
