<svg width="218" height="71" viewBox="0 0 218 71" fill="none" xmlns="http://www.w3.org/2000/svg">
  <g id="photo_2024-11-09 16.09.41 1">
    <path id="Vector_7" d="M35.8472 12.1901C38.6918 12.0083 41.6494 12.1438 44.5049 12.151C45.7087 12.154 46.902 12.2941 47.7877 13.1647C49 14.3564 48.8279 16.1042 48.8121 17.6365C51.4117 17.6265 55.1782 17.1899 57.4157 18.5623C59.5565 19.8754 59.8449 22.3141 60.3079 24.5114C60.5728 25.792 60.8524 27.0696 61.1467 28.3442C62.7866 28.3401 64.4316 28.3109 66.0703 28.3784C66.1008 29.3637 66.0775 30.3525 66.0691 31.3383C64.7208 31.4771 63.3133 31.3998 61.9569 31.3966C62.7483 31.8016 63.4757 32.2672 64.1098 32.8838C64.8786 33.6313 65.4923 34.604 65.7576 35.6304C66.2612 37.5775 66.0162 39.9509 66.0153 41.9566L66.0062 51.2623L61.9383 51.2592C61.9239 52.8896 61.9839 54.5126 61.9996 56.142C62.0064 56.8411 61.9198 57.5483 61.3737 58.0644C60.4562 58.9316 58.9642 58.8323 57.7792 58.8363C56.5138 58.8404 54.7924 58.991 53.8265 58.0351C53.5187 57.7305 53.3522 57.3451 53.2769 56.9314C53.0684 55.7843 53.2864 52.6259 53.2842 51.2654L46.0083 51.2596L27.7513 51.2597C27.7352 52.7385 27.7726 54.2113 27.8011 55.6894C27.8172 56.5266 27.8469 57.4087 27.1844 58.0499C26.4032 58.8058 25.2027 58.8219 24.1733 58.8322C22.7872 58.8459 20.6945 59.0822 19.6385 58.0504C19.324 57.743 19.1727 57.3657 19.0972 56.9466C18.9107 55.9105 19.116 52.5503 19.1174 51.264L15.8452 51.261L15.8387 42.3602C15.8371 40.1926 15.5395 37.5314 16.1853 35.4532C16.7816 33.5339 18.1587 32.324 19.9333 31.3967C18.52 31.4005 17.1014 31.4277 15.6894 31.3624C15.6262 30.3656 15.6601 29.3626 15.6736 28.3645C17.3058 28.2708 18.9891 28.3444 20.6267 28.3449C21.1833 25.8527 21.73 20.9156 23.5213 19.1923C25.7298 17.0677 30.0081 17.6265 32.9266 17.6397C32.9098 16.3483 32.7594 14.8801 33.4762 13.7237C34.0095 12.8634 34.8662 12.4252 35.8472 12.1901Z" fill="#F5B70D"/>
    <path id="Vector_8" d="M43.9255 13.5112L45.9439 13.5142L45.9449 15.4494L43.9248 15.4477L43.9255 13.5112Z" fill="#26272C"/>
    <path id="Vector_9" d="M35.7873 13.5132L37.8105 13.5149L37.8063 15.4473L35.7822 15.4471L35.7873 13.5132Z" fill="#26272C"/>
    <path id="Vector_10" d="M39.8508 13.5093L41.8777 13.5153L41.8687 15.4465L39.8418 15.4472L39.8508 13.5093Z" fill="#26272C"/>
    <path id="Vector_11" d="M37.8066 15.4463L39.8429 15.4471L39.8419 17.404L37.8112 17.4009L37.8066 15.4463Z" fill="#26272C"/>
    <path id="Vector_12" d="M41.8691 15.4473L43.9247 15.4476L43.9228 17.4048L41.8802 17.4022L41.8691 15.4473Z" fill="#26272C"/>
    <path id="Vector_13" d="M31.9102 43.2522L44.2673 43.2441C46.311 43.2412 48.5046 43.0792 50.5327 43.2931C50.7008 43.574 50.6513 43.8779 50.6559 44.1989L38.7908 44.2026C36.5462 44.2028 34.286 44.2589 32.0434 44.1693C31.872 43.9003 31.92 43.5661 31.9102 43.2522Z" fill="#26272C"/>
    <path id="Vector_14" d="M31.9237 38.7767L44.0793 38.7713C46.2093 38.7674 48.4408 38.6288 50.5603 38.8115C50.7264 39.0132 50.6557 39.496 50.6522 39.7506L38.521 39.7627C36.3817 39.7645 34.177 39.8693 32.0449 39.7296C31.8556 39.4728 31.9176 39.0797 31.9237 38.7767Z" fill="#26272C"/>
    <path id="Vector_15" d="M31.9301 40.9395L43.7588 40.9352C46.0153 40.9349 48.286 40.8804 50.5404 40.9668C50.7291 41.2083 50.6584 41.6684 50.6552 41.9616L37.7298 41.9642C36.1214 41.9646 33.5144 42.161 32.0169 41.906C31.8538 41.6491 31.9222 41.2333 31.9301 40.9395Z" fill="#26272C"/>
    <path id="Vector_16" d="M18.411 38.8877C19.7593 38.8619 28.385 38.6811 29.0388 39.0772C29.1988 39.3358 29.2536 39.5966 29.2763 39.8933C29.3426 40.7514 29.4707 43.4826 28.976 44.0446C27.5409 44.1085 19.113 44.2571 18.3047 43.9008C18.1728 43.6845 18.125 43.4733 18.0986 43.2264C18.0353 42.6347 17.9991 39.4884 18.1598 39.1886C18.2128 39.0896 18.3364 38.9772 18.411 38.8877Z" fill="#26272C"/>
    <path id="Vector_17" d="M52.9648 38.8909C54.1731 38.8549 63.0413 38.6885 63.5365 39.0491C63.7399 39.1972 63.8147 39.5484 63.846 39.7783C63.9349 40.4271 63.9618 42.9098 63.8211 43.5229C63.7765 43.7173 63.649 43.8899 63.5246 44.0453C62.0961 44.0975 53.417 44.2393 52.8253 43.8801C52.6917 43.6592 52.6492 43.4321 52.6231 43.1812C52.5619 42.5924 52.5224 39.526 52.6892 39.2161C52.7465 39.1096 52.8835 38.9869 52.9648 38.8909Z" fill="#26272C"/>
    <path id="Vector_18" d="M28.7964 20.0655C30.5419 19.9582 32.3137 20.015 34.0637 20.0137L43.0433 20.0106L49.3085 20.012C50.4886 20.0127 51.7306 19.9412 52.9033 20.0758C53.5715 20.1526 54.2471 20.4186 54.8132 20.7641C55.5162 21.193 56.0258 21.7587 56.3937 22.4771C57.2431 24.1353 58.0036 28.8213 58.4941 30.8736L53.1086 30.8765L23.2656 30.8701C23.8224 28.7459 24.5266 23.7664 25.5289 22.16C26.2868 20.9453 27.4108 20.3927 28.7964 20.0655Z" fill="#26272C"/>
  </g>
</svg>
