<svg width="24" height="24" viewBox="0 0 24 24" fill="none" xmlns="http://www.w3.org/2000/svg">
<path d="M3.5 18.9853V20.5H5.01472C6.24097 20.5 6.8541 20.5 7.40541 20.2716C7.95673 20.0433 8.39027 19.6097 9.25736 18.7426L19.1213 8.87868C20.0039 7.99612 20.4451 7.55483 20.4939 7.01325C20.502 6.92372 20.502 6.83364 20.4939 6.74411C20.4451 6.20253 20.0039 5.76124 19.1213 4.87868C18.2387 3.99612 17.7974 3.55483 17.2559 3.50605C17.1663 3.49798 17.0763 3.49798 16.9867 3.50605C16.4451 3.55483 16.0039 3.99612 15.1213 4.87868L5.25736 14.7426C4.39027 15.6097 3.95673 16.0433 3.72836 16.5946C3.5 17.1459 3.5 17.759 3.5 18.9853Z" stroke="#85888C" stroke-width="1.5" stroke-linecap="round" stroke-linejoin="round"/>
<path d="M13.5 6.5L17.5 10.5" stroke="#85888C" stroke-width="1.5" stroke-linecap="round" stroke-linejoin="round"/>
</svg>
