<svg width="28" height="24" viewBox="0 0 28 24" fill="none" xmlns="http://www.w3.org/2000/svg">
<path d="M22.6788 15.439C23.7575 14.5212 24.5903 13.6091 25.1346 12.955C25.4893 12.5287 25.6666 12.3155 25.6666 12C25.6666 11.6845 25.4893 11.4713 25.1346 11.045C23.5408 9.12944 19.4707 5 13.9999 5C12.9408 5 11.9342 5.15476 10.9879 5.41827M7.87191 6.74742C5.51963 8.1072 3.78243 9.94266 2.8653 11.045C2.5106 11.4713 2.33325 11.6845 2.33325 12C2.33325 12.3155 2.5106 12.5287 2.8653 12.955C4.45904 14.8706 8.52916 19 13.9999 19C16.3225 19 18.3925 18.2557 20.128 17.2526" stroke="#0D0E11" stroke-width="1.5" stroke-linecap="round" stroke-linejoin="round"/>
<path d="M11.5008 10C10.8825 10.53 10.5 11.2623 10.5 12.0711C10.5 13.6887 12.0298 15 13.917 15C14.8607 15 15.715 14.6722 16.3333 14.1421" stroke="#0D0E11" stroke-width="1.5" stroke-linecap="round"/>
<path d="M3.5 3L24.5 21" stroke="#0D0E11" stroke-width="1.5" stroke-linecap="round" stroke-linejoin="round"/>
</svg>
