<svg width="218" height="71" viewBox="0 0 218 71" fill="none" xmlns="http://www.w3.org/2000/svg">
<g id="photo_2024-11-09 16.09.41 1">
<path id="Vector" d="M205.945 22.4946C207.928 22.2702 210.268 22.4609 212.287 22.4694C212.324 22.5143 212.355 22.5573 212.383 22.6087C212.641 23.0791 212.667 27.2155 212.504 27.6994C212.467 27.9737 212.155 28.1723 211.949 28.3459C212.212 29.7833 212.017 32.3085 212.011 33.8777C211.999 37.2839 212.138 40.7688 211.895 44.1642C212.085 44.358 212.292 44.5606 212.348 44.8312C212.456 45.3599 212.59 48.3219 212.441 48.725C212.412 48.8032 212.312 48.9191 212.263 48.9919C211.771 49.2186 206.616 49.0427 205.762 49.0372C206.082 48.5166 205.914 45.4057 205.753 44.786C205.996 44.6074 206.316 44.4232 206.44 44.1457C206.67 42.1507 206.497 39.9557 206.496 37.9437C206.494 34.8845 206.657 31.65 206.333 28.6086L206.338 28.5368C206.152 28.2623 205.977 28.0501 205.716 27.8409C206.153 26.8801 205.587 23.9002 205.945 22.4946Z" fill="#F6F8F9"/>
<path id="Vector_2" d="M142.554 22.9045C144.179 22.6625 146.125 22.8499 147.781 22.8507L158.906 22.8736C158.968 22.9783 159.016 23.0928 159.041 23.2111C159.162 23.7789 159.11 28.4481 158.825 28.8757C158.063 28.9125 154.495 29 153.959 28.8016C153.688 28.7011 153.675 28.4644 153.464 28.2951C153.1 29.0187 153.273 39.6697 153.245 41.3822C153.233 42.1468 153.377 43.4436 153.074 44.1438C153.226 44.2156 153.384 44.2868 153.527 44.375C153.796 44.541 153.861 44.6117 153.93 44.9003C153.997 44.9817 154.061 45.0943 154.086 45.1967C154.24 45.8308 154.255 48.5658 153.961 49.0541L147.231 49.0412C147.563 48.4778 147.39 46.5889 147.397 45.8558C147.405 45.0686 147.413 44.7388 148.01 44.1734C148.247 43.4808 148.073 30.7063 147.968 29.196C147.949 28.9243 147.973 28.3424 147.776 28.1758C147.683 28.3846 147.575 28.558 147.439 28.7432C146.872 29.0254 142.977 28.8301 142.091 28.8116C142.867 27.4541 141.526 24.3026 142.554 22.9045Z" fill="#F6F8F9"/>
<path id="Vector_3" d="M187.673 22.8023L189.355 22.7986C189.412 22.8498 189.468 22.9039 189.516 22.9648C189.855 23.4057 192.759 31.506 192.705 31.8048C193.21 31.241 193.413 30.0775 193.661 29.345C193.969 28.4347 195.585 23.3415 196.158 22.9579C197.243 22.722 199.523 22.7092 200.59 22.9273C200.795 23.5017 200.971 27.1116 200.712 27.6244C200.524 27.9979 199.92 28.1615 199.549 28.3006C199.581 28.9351 196.831 35.8514 196.463 36.249C196.529 36.3203 196.594 36.3947 196.648 36.4742C197.055 37.0609 199.576 43.5608 199.447 44.1574C199.835 44.272 200.285 44.3922 200.557 44.6926C200.634 44.7889 200.678 44.885 200.707 45.0014C200.869 45.6437 200.881 48.5478 200.579 49.0474L198.084 49.046L195.551 49.0306C195.563 48.9676 195.573 48.9226 195.563 48.8582C195.419 47.9345 194.846 46.8334 194.548 45.9297C194.01 44.305 193.613 42.5586 192.971 40.9783C192.893 40.7861 192.771 40.6305 192.605 40.4993C192.635 40.5883 192.656 40.6739 192.662 40.7679C192.683 41.1388 189.931 48.7054 189.596 49.0628C188.036 49.1404 186.425 49.0612 184.862 49.0589C184.889 49.0152 184.915 48.9709 184.935 48.9238C185.111 48.5131 185.013 45.159 184.833 44.7135C185.178 44.5764 185.571 44.4596 185.839 44.2013C186.327 43.5523 189.053 36.9158 188.985 36.3213C189.004 36.2609 189.016 36.2035 189.004 36.14C188.85 35.2075 187.76 32.961 187.373 31.9454C186.978 30.9052 186.683 29.7865 186.23 28.7738C186.164 28.6273 186.063 28.5139 185.937 28.4115C185.778 28.0522 184.993 27.7363 184.644 27.5749C185.108 26.708 184.732 24.8425 184.706 23.8788C184.701 23.6329 184.788 23.3839 184.969 23.2077C185.551 22.6441 186.914 22.7992 187.673 22.8023Z" fill="#F6F8F9"/>
<path id="Vector_4" d="M166.508 23.0068C167.767 22.8936 169.075 22.9622 170.34 22.9654L177.037 22.9851C177.084 23.0513 177.127 23.1199 177.155 23.1951C177.332 23.6398 177.327 27.0975 177.152 27.5498C177.035 27.8528 176.662 27.8548 176.555 28.0949C176.471 28.2857 176.491 28.4524 176.52 28.6526C176.972 31.7521 177.757 34.8604 178.412 37.9276C178.791 39.7077 179.032 41.5756 179.512 43.3269C179.67 43.9016 180.061 44.2393 180.256 44.7436C180.263 44.7577 180.266 44.7721 180.271 44.7863C180.304 44.8619 180.333 44.9393 180.353 45.0183C180.509 45.622 180.583 48.6085 180.333 49.0095C179.378 49.1065 176.879 49.1947 175.986 49.0615C174.662 48.8641 175.209 46.5463 174.482 45.662C174.47 45.647 174.457 45.6326 174.445 45.6179C174.448 45.6061 174.453 45.5945 174.457 45.5824C174.599 45.1076 174.399 43.8525 174.163 43.4141C172.549 43.3951 170.936 43.398 169.323 43.4228C169.352 43.5119 169.376 43.6029 169.383 43.6966C169.435 44.3844 168.547 48.601 168.121 49.0597C166.431 49.027 164.74 49.0468 163.05 49.0131C163.579 48.0904 162.85 46.0651 163.23 44.9715C163.343 44.6425 163.648 44.4747 163.817 44.1822C163.824 44.1707 163.83 44.1591 163.836 44.1475C164.376 43.039 164.464 41.4951 164.693 40.2827C165.117 38.0428 165.523 35.7873 166.03 33.5641C166.444 31.7527 167.155 29.9467 167.469 28.1255C167.434 28.0573 166.905 27.7936 166.798 27.7249C166.278 26.8866 166.587 24.1112 166.508 23.0068ZM171.69 32.0094C171.729 33.117 170.776 37.9206 170.217 38.6309L171.595 38.6213L173.024 38.607C173.088 37.5882 172.604 36.3038 172.405 35.2879C172.203 34.2534 172.064 33.2014 171.927 32.157C171.839 32.0773 171.81 32.0353 171.69 32.0094Z" fill="#F6F8F9"/>
<path id="Vector_5" d="M111.793 22.8021C113.107 22.6957 122.99 22.6159 123.56 22.9315C123.993 23.1715 126.877 26.2685 126.979 26.6153C127.011 26.656 127.036 26.6955 127.059 26.7422C127.246 27.1283 127.205 35.6627 126.993 36.2389C126.742 36.7284 125.495 37.8413 124.989 38.1137C125.026 38.1508 125.062 38.1891 125.095 38.2307C125.423 38.6537 126.608 43.6072 126.524 44.1678C126.859 44.2717 127.24 44.3509 127.498 44.5919C127.539 44.6526 127.579 44.7175 127.606 44.7854C127.782 45.235 127.878 48.6927 127.676 49.0989C125.34 48.9957 122.977 49.1041 120.637 49.0583C120.684 48.9777 120.726 48.8944 120.751 48.8048C120.924 48.1978 120.913 46.0251 120.588 45.5132C120.892 45.0333 120.795 44.6275 121.278 44.1948L121.309 44.1667C121.134 43.1892 120.549 40.337 120.036 39.6297C118.963 39.596 117.882 39.6279 116.808 39.6384C117.218 40.2622 116.97 43.3016 116.914 44.1412C117.177 44.2644 117.424 44.3651 117.607 44.5961C117.615 44.6176 117.623 44.6388 117.63 44.6603C117.821 45.2562 117.887 48.6165 117.608 49.093C115.412 49.1706 113.178 49.0878 110.979 49.0574C111.29 48.4758 111.185 45.457 111.024 44.6923C111.293 44.5493 111.524 44.3712 111.636 44.1C111.775 43.7777 111.776 43.4179 111.783 43.0741C111.814 41.4867 111.9 28.6431 111.702 28.1505C111.679 28.0929 111.457 27.9201 111.4 27.8642C111.381 27.8457 111.361 27.8284 111.344 27.8087C110.909 27.3168 111.063 24.9589 111.122 24.2716C111.177 23.6359 111.267 23.2345 111.793 22.8021ZM117.099 28.122C116.527 28.7849 117.423 33.8925 116.814 34.8181C117.628 34.8248 120.813 35.0422 121.372 34.7281L121.426 34.6118C121.709 34.4171 121.847 34.3504 121.91 33.9982C122.024 33.3542 122.087 28.849 121.825 28.5097C121.632 28.2604 120.991 28.1699 120.684 28.1387C119.516 28.0196 118.274 28.1038 117.099 28.122Z" fill="#F6F8F9"/>
<path id="Vector_6" d="M86.012 22.8018C87.9853 22.6491 90.1043 22.6789 92.0826 22.7766C92.1443 22.8327 92.2011 22.8934 92.2446 22.9641C92.5978 23.5375 93.0328 25.1574 93.3068 25.8885C94.0729 27.9341 95.0026 29.9595 95.652 32.0406C95.7295 32.2891 95.7833 32.4705 95.7209 32.7293C96.8596 31.8185 98.6511 24.4133 99.8513 23.0832C100.809 22.6002 104.332 22.8692 105.625 22.8824C105.634 22.8981 105.642 22.914 105.651 22.9295C105.701 23.0148 105.746 23.098 105.775 23.1924C105.914 23.6453 106.068 26.9929 105.851 27.3631C105.847 27.3819 105.845 27.4011 105.841 27.4199C105.764 27.7412 105.338 27.9522 105.069 28.1078C105.283 28.6406 105.206 43.3404 105.04 44.1612C105.054 44.1674 105.068 44.1733 105.083 44.1796C105.324 44.2876 105.746 44.5134 105.836 44.7581C105.855 44.8056 105.873 44.853 105.886 44.9024C106.031 45.4462 105.963 48.6643 105.728 49.0644C103.509 49.0705 101.291 49.0654 99.0727 49.049C99.111 48.9874 99.151 48.9172 99.1693 48.8468C99.3221 48.2586 99.3134 46.4139 99.002 45.9156C99.2685 45.5056 99.2017 45.1076 99.0995 44.6634C99.3902 44.5353 99.7537 44.4237 99.9358 44.1582C99.9982 44.0516 100.045 43.9454 100.069 43.8245C100.226 43.035 100.192 36.1866 99.8788 35.7164C99.8867 35.8094 99.8897 35.9026 99.8876 35.9958C99.8783 36.5507 98.3298 40.7566 97.9453 41.1116C96.7013 41.3328 95.087 41.1602 93.8147 41.0939C93.8274 41.0435 93.8386 40.9881 93.8345 40.9361C93.7855 40.3126 92.1492 36.2208 91.7237 35.9011C91.7471 35.9445 91.7662 35.9867 91.7876 36.031C92.1268 36.7366 92.0822 43.0988 91.8505 44.0182C92.1282 44.169 92.4721 44.3081 92.6368 44.5821C92.6705 44.6505 92.6993 44.7203 92.7175 44.7941C92.8744 45.4331 92.9394 48.5396 92.6108 49.0633L85.7646 49.0484C86.2031 48.3055 86.1137 45.4652 85.8954 44.6567C86.1614 44.4805 86.5177 44.3059 86.6257 43.9979C86.7318 43.8264 86.7742 43.664 86.7835 43.4646C86.8907 41.1767 86.6825 38.8213 86.6684 36.5256L86.6518 31.2169C86.6437 30.229 86.6906 29.2045 86.5496 28.2249L86.5489 28.166C86.348 27.8925 86.1061 27.7319 85.825 27.5452C86.2648 26.4475 86.014 24.0117 86.012 22.8018Z" fill="#F6F8F9"/>
<path id="Vector_7" d="M35.8472 12.1901C38.6918 12.0083 41.6494 12.1438 44.5049 12.151C45.7087 12.154 46.902 12.2941 47.7877 13.1647C49 14.3564 48.8279 16.1042 48.8121 17.6365C51.4117 17.6265 55.1782 17.1899 57.4157 18.5623C59.5565 19.8754 59.8449 22.3141 60.3079 24.5114C60.5728 25.792 60.8524 27.0696 61.1467 28.3442C62.7866 28.3401 64.4316 28.3109 66.0703 28.3784C66.1008 29.3637 66.0775 30.3525 66.0691 31.3383C64.7208 31.4771 63.3133 31.3998 61.9569 31.3966C62.7483 31.8016 63.4757 32.2672 64.1098 32.8838C64.8786 33.6313 65.4923 34.604 65.7576 35.6304C66.2612 37.5775 66.0162 39.9509 66.0153 41.9566L66.0062 51.2623L61.9383 51.2592C61.9239 52.8896 61.9839 54.5126 61.9996 56.142C62.0064 56.8411 61.9198 57.5483 61.3737 58.0644C60.4562 58.9316 58.9642 58.8323 57.7792 58.8363C56.5138 58.8404 54.7924 58.991 53.8265 58.0351C53.5187 57.7305 53.3522 57.3451 53.2769 56.9314C53.0684 55.7843 53.2864 52.6259 53.2842 51.2654L46.0083 51.2596L27.7513 51.2597C27.7352 52.7385 27.7726 54.2113 27.8011 55.6894C27.8172 56.5266 27.8469 57.4087 27.1844 58.0499C26.4032 58.8058 25.2027 58.8219 24.1733 58.8322C22.7872 58.8459 20.6945 59.0822 19.6385 58.0504C19.324 57.743 19.1727 57.3657 19.0972 56.9466C18.9107 55.9105 19.116 52.5503 19.1174 51.264L15.8452 51.261L15.8387 42.3602C15.8371 40.1926 15.5395 37.5314 16.1853 35.4532C16.7816 33.5339 18.1587 32.324 19.9333 31.3967C18.52 31.4005 17.1014 31.4277 15.6894 31.3624C15.6262 30.3656 15.6601 29.3626 15.6736 28.3645C17.3058 28.2708 18.9891 28.3444 20.6267 28.3449C21.1833 25.8527 21.73 20.9156 23.5213 19.1923C25.7298 17.0677 30.0081 17.6265 32.9266 17.6397C32.9098 16.3483 32.7594 14.8801 33.4762 13.7237C34.0095 12.8634 34.8662 12.4252 35.8472 12.1901Z" fill="#F5B70D"/>
<path id="Vector_8" d="M43.9255 13.5112L45.9439 13.5142L45.9449 15.4494L43.9248 15.4477L43.9255 13.5112Z" fill="#26272C"/>
<path id="Vector_9" d="M35.7873 13.5132L37.8105 13.5149L37.8063 15.4473L35.7822 15.4471L35.7873 13.5132Z" fill="#26272C"/>
<path id="Vector_10" d="M39.8508 13.5093L41.8777 13.5153L41.8687 15.4465L39.8418 15.4472L39.8508 13.5093Z" fill="#26272C"/>
<path id="Vector_11" d="M37.8066 15.4463L39.8429 15.4471L39.8419 17.404L37.8112 17.4009L37.8066 15.4463Z" fill="#26272C"/>
<path id="Vector_12" d="M41.8691 15.4473L43.9247 15.4476L43.9228 17.4048L41.8802 17.4022L41.8691 15.4473Z" fill="#26272C"/>
<path id="Vector_13" d="M31.9102 43.2522L44.2673 43.2441C46.311 43.2412 48.5046 43.0792 50.5327 43.2931C50.7008 43.574 50.6513 43.8779 50.6559 44.1989L38.7908 44.2026C36.5462 44.2028 34.286 44.2589 32.0434 44.1693C31.872 43.9003 31.92 43.5661 31.9102 43.2522Z" fill="#26272C"/>
<path id="Vector_14" d="M31.9237 38.7767L44.0793 38.7713C46.2093 38.7674 48.4408 38.6288 50.5603 38.8115C50.7264 39.0132 50.6557 39.496 50.6522 39.7506L38.521 39.7627C36.3817 39.7645 34.177 39.8693 32.0449 39.7296C31.8556 39.4728 31.9176 39.0797 31.9237 38.7767Z" fill="#26272C"/>
<path id="Vector_15" d="M31.9301 40.9395L43.7588 40.9352C46.0153 40.9349 48.286 40.8804 50.5404 40.9668C50.7291 41.2083 50.6584 41.6684 50.6552 41.9616L37.7298 41.9642C36.1214 41.9646 33.5144 42.161 32.0169 41.906C31.8538 41.6491 31.9222 41.2333 31.9301 40.9395Z" fill="#26272C"/>
<path id="Vector_16" d="M18.411 38.8877C19.7593 38.8619 28.385 38.6811 29.0388 39.0772C29.1988 39.3358 29.2536 39.5966 29.2763 39.8933C29.3426 40.7514 29.4707 43.4826 28.976 44.0446C27.5409 44.1085 19.113 44.2571 18.3047 43.9008C18.1728 43.6845 18.125 43.4733 18.0986 43.2264C18.0353 42.6347 17.9991 39.4884 18.1598 39.1886C18.2128 39.0896 18.3364 38.9772 18.411 38.8877Z" fill="#26272C"/>
<path id="Vector_17" d="M52.9648 38.8909C54.1731 38.8549 63.0413 38.6885 63.5365 39.0491C63.7399 39.1972 63.8147 39.5484 63.846 39.7783C63.9349 40.4271 63.9618 42.9098 63.8211 43.5229C63.7765 43.7173 63.649 43.8899 63.5246 44.0453C62.0961 44.0975 53.417 44.2393 52.8253 43.8801C52.6917 43.6592 52.6492 43.4321 52.6231 43.1812C52.5619 42.5924 52.5224 39.526 52.6892 39.2161C52.7465 39.1096 52.8835 38.9869 52.9648 38.8909Z" fill="#26272C"/>
<path id="Vector_18" d="M28.7964 20.0655C30.5419 19.9582 32.3137 20.015 34.0637 20.0137L43.0433 20.0106L49.3085 20.012C50.4886 20.0127 51.7306 19.9412 52.9033 20.0758C53.5715 20.1526 54.2471 20.4186 54.8132 20.7641C55.5162 21.193 56.0258 21.7587 56.3937 22.4771C57.2431 24.1353 58.0036 28.8213 58.4941 30.8736L53.1086 30.8765L23.2656 30.8701C23.8224 28.7459 24.5266 23.7664 25.5289 22.16C26.2868 20.9453 27.4108 20.3927 28.7964 20.0655Z" fill="#26272C"/>
</g>
</svg>
