<svg width="81" height="32" viewBox="0 0 81 32" fill="none" xmlns="http://www.w3.org/2000/svg">
<rect y="16" width="16" height="16" fill="#3A3C3F"/>
<rect x="32" y="16" width="16" height="16" fill="#3A3C3F"/>
<rect x="64" y="16" width="16" height="16" fill="#3A3C3F"/>
<rect x="16" width="16" height="16" fill="#3A3C3F"/>
<rect x="48" width="16" height="16" fill="#3A3C3F"/>
<path d="M0.76 20.64C0.866667 20.64 0.96 20.6133 1.04 20.56C1.12 20.4933 1.16 20.4 1.16 20.28V11.16C1.16 11.04 1.12 10.96 1.04 10.92C0.96 10.8667 0.866667 10.84 0.76 10.84V10.48H4.5V10.84C4.43333 10.84 4.36 10.86 4.28 10.9C4.21333 10.94 4.18 11 4.18 11.08C4.18 11.1467 4.20667 11.2333 4.26 11.34C4.31333 11.4467 4.37333 11.56 4.44 11.68L7.3 16.88L10.18 11.74C10.2733 11.5667 10.34 11.4333 10.38 11.34C10.4333 11.2333 10.46 11.14 10.46 11.06C10.46 10.9133 10.3733 10.84 10.2 10.84V10.48H13.9V10.84C13.7933 10.84 13.7 10.8667 13.62 10.92C13.54 10.96 13.5 11.04 13.5 11.16V20.28C13.5 20.4 13.54 20.4933 13.62 20.56C13.7 20.6133 13.7933 20.64 13.9 20.64V21H10.76V20.64C11.12 20.64 11.3 20.52 11.3 20.28V13.64H11.26L7.24 21H7.18L3.24 13.62H3.2V20.28C3.2 20.52 3.38667 20.64 3.76 20.64V21H0.76V20.64ZM23.5802 15.16C24.0602 15.16 24.4602 15.1267 24.7802 15.06C25.1002 14.98 25.3535 14.8733 25.5402 14.74C25.7268 14.6067 25.8602 14.4533 25.9402 14.28C26.0202 14.0933 26.0602 13.8933 26.0602 13.68C26.0602 13.4667 26.0202 13.2733 25.9402 13.1C25.8602 12.9133 25.7268 12.7533 25.5402 12.62C25.3535 12.4867 25.1002 12.3867 24.7802 12.32C24.4602 12.24 24.0602 12.2 23.5802 12.2H20.1202V15.16H23.5802ZM24.1002 10.48C24.7402 10.48 25.3202 10.54 25.8402 10.66C26.3602 10.7667 26.8068 10.9467 27.1802 11.2C27.5535 11.44 27.8402 11.76 28.0402 12.16C28.2402 12.5467 28.3402 13.0267 28.3402 13.6C28.3402 14.48 28.0802 15.1533 27.5602 15.62C27.0402 16.0867 26.3402 16.4 25.4602 16.56L28.1202 20.36C28.2135 20.4933 28.3202 20.5733 28.4402 20.6C28.5735 20.6267 28.6935 20.64 28.8002 20.64V21H25.0602V20.64C25.1802 20.64 25.2802 20.62 25.3602 20.58C25.4535 20.54 25.5002 20.4867 25.5002 20.42C25.5002 20.3533 25.4735 20.28 25.4202 20.2C25.3668 20.1067 25.2868 19.9867 25.1802 19.84L22.9802 16.72H20.1202V20.28C20.1202 20.4 20.1602 20.4933 20.2402 20.56C20.3335 20.6133 20.4935 20.64 20.7202 20.64V21H17.2602V20.64C17.6468 20.64 17.8402 20.52 17.8402 20.28V11.2C17.8402 10.96 17.6468 10.84 17.2602 10.84V10.48H24.1002ZM43.4275 20.28C43.4275 20.52 43.5742 20.64 43.8675 20.64V21H40.7875V20.64C40.8808 20.64 40.9608 20.6133 41.0275 20.56C41.1075 20.4933 41.1475 20.4 41.1475 20.28V12.32H37.8475C37.7275 12.32 37.6075 12.3533 37.4875 12.42C37.3808 12.4867 37.3275 12.6133 37.3275 12.8H36.9675V10H37.3275C37.3275 10.1867 37.3808 10.3133 37.4875 10.38C37.6075 10.4467 37.7275 10.48 37.8475 10.48H46.7275C46.8475 10.48 46.9608 10.4467 47.0675 10.38C47.1875 10.3133 47.2475 10.1867 47.2475 10H47.6075V12.8H47.2475C47.2475 12.6133 47.1875 12.4867 47.0675 12.42C46.9608 12.3533 46.8475 12.32 46.7275 12.32H43.4275V20.28ZM56.3741 16.92L54.6941 13.2L52.8141 16.92H56.3741ZM48.8341 20.64C49.0074 20.6133 49.1407 20.5267 49.2341 20.38C49.3407 20.2333 49.4407 20.0667 49.5341 19.88L53.2341 12.1C53.3274 11.9267 53.4074 11.7667 53.4741 11.62C53.5541 11.4733 53.5941 11.3467 53.5941 11.24C53.5941 11.1067 53.5474 11.0133 53.4541 10.96C53.3607 10.9067 53.2607 10.8667 53.1541 10.84V10.48H56.5341V10.84C56.4407 10.8667 56.3474 10.9067 56.2541 10.96C56.1607 11 56.1141 11.0933 56.1141 11.24C56.1141 11.3467 56.1341 11.4533 56.1741 11.56C56.2274 11.6667 56.3007 11.8067 56.3941 11.98L60.5541 20.12C60.6207 20.2667 60.7074 20.3733 60.8141 20.44C60.9341 20.5067 61.0674 20.5733 61.2141 20.64V21H57.6941V20.64C57.7474 20.64 57.8141 20.62 57.8941 20.58C57.9741 20.54 58.0141 20.48 58.0141 20.4C58.0141 20.2667 57.9607 20.0933 57.8541 19.88L57.0941 18.4H52.2141L51.4941 19.82C51.3607 20.1 51.2941 20.3 51.2941 20.42C51.2941 20.5667 51.4207 20.64 51.6741 20.64V21H48.8341V20.64ZM66.9539 10.84C66.8472 10.84 66.7406 10.8667 66.6339 10.92C66.5406 10.9733 66.4939 11.0533 66.4939 11.16C66.4939 11.2533 66.5272 11.3667 66.5939 11.5C66.6739 11.6333 66.7739 11.7733 66.8939 11.92L68.5339 13.98L70.1939 11.88C70.3406 11.6933 70.4672 11.5333 70.5739 11.4C70.6806 11.2667 70.7339 11.1667 70.7339 11.1C70.7339 10.9267 70.5539 10.84 70.1939 10.84V10.48H74.2539V10.84C73.9339 10.84 73.6939 10.86 73.5339 10.9C73.3872 10.94 73.2606 11.0267 73.1539 11.16L69.6939 15.44L73.0139 19.68C73.0672 19.76 73.1272 19.8533 73.1939 19.96C73.2739 20.0667 73.3672 20.1733 73.4739 20.28C73.5806 20.3733 73.6939 20.46 73.8139 20.54C73.9472 20.6067 74.0939 20.64 74.2539 20.64V21H70.2339V20.64C70.4472 20.64 70.5539 20.5333 70.5539 20.32C70.5539 20.2267 70.5072 20.12 70.4139 20C70.3339 19.88 70.2339 19.7467 70.1139 19.6L68.2739 17.2L66.2939 19.68C66.2272 19.7733 66.1406 19.8867 66.0339 20.02C65.9406 20.14 65.8939 20.2533 65.8939 20.36C65.8939 20.5467 66.0206 20.64 66.2739 20.64V21H62.5939V20.64C62.8472 20.64 63.0406 20.6133 63.1739 20.56C63.3206 20.5067 63.4672 20.3867 63.6139 20.2L67.1139 15.74L63.8739 11.62C63.6472 11.3267 63.4406 11.1267 63.2539 11.02C63.0672 10.9 62.8472 10.84 62.5939 10.84V10.48H66.9539V10.84ZM76.7538 20.64C77.1004 20.64 77.2738 20.52 77.2738 20.28V11.2C77.2738 10.96 77.1004 10.84 76.7538 10.84V10.48H80.0738V10.84C79.7271 10.84 79.5538 10.96 79.5538 11.2V20.28C79.5538 20.52 79.7271 20.64 80.0738 20.64V21H76.7538V20.64Z" fill="#F5B70D"/>
</svg>
