<svg width="19" height="19" viewBox="0 0 19 19" fill="none" xmlns="http://www.w3.org/2000/svg">
<g clip-path="url(#clip0_463_10778)">
<path d="M18.674 9.71009C18.674 8.93122 18.6121 8.36285 18.4782 7.77344H9.77246V11.2889H14.8825C14.7796 12.1625 14.2232 13.4782 12.9869 14.3623L12.9695 14.48L15.7221 16.6585L15.9128 16.6779C17.6643 15.0254 18.674 12.594 18.674 9.71009Z" fill="#4285F4"/>
<path d="M9.77263 18.9743C12.2761 18.9743 14.3779 18.1323 15.913 16.6798L12.987 14.3642C12.2041 14.922 11.1532 15.3114 9.77263 15.3114C7.32061 15.3114 5.23948 13.659 4.49762 11.375L4.38888 11.3844L1.52669 13.6474L1.48926 13.7537C3.01404 16.8481 6.14606 18.9743 9.77263 18.9743Z" fill="#34A853"/>
<path d="M4.4974 11.375C4.30165 10.7856 4.18836 10.154 4.18836 9.5015C4.18836 8.84889 4.30165 8.21739 4.4871 7.62797L4.48191 7.50244L1.58385 5.20312L1.48903 5.2492C0.860597 6.53332 0.5 7.97532 0.5 9.5015C0.5 11.0277 0.860597 12.4696 1.48903 13.7537L4.4974 11.375Z" fill="#FBBC05"/>
<path d="M9.77263 3.69016C11.5138 3.69016 12.6882 4.45851 13.3579 5.1006L15.9748 2.49029C14.3676 0.964108 12.2761 0.0273438 9.77263 0.0273438C6.14606 0.0273438 3.01404 2.15346 1.48926 5.2479L4.48732 7.62667C5.23949 5.34267 7.32061 3.69016 9.77263 3.69016Z" fill="#EB4335"/>
</g>
<defs>
<clipPath id="clip0_463_10778">
<rect x="0.5" width="18.1739" height="19" rx="9.08696" fill="white"/>
</clipPath>
</defs>
</svg>
