<svg width="25" height="24" viewBox="0 0 25 24" fill="none" xmlns="http://www.w3.org/2000/svg">
<g id="Group">
<path id="Vector" d="M12.5273 0H12.4727C5.86035 0 0.5 5.36035 0.5 11.9727V12.0273C0.5 18.6397 5.86035 24 12.4727 24H12.5273C19.1397 24 24.5 18.6397 24.5 12.0273V11.9727C24.5 5.36035 19.1397 0 12.5273 0Z" fill="url(#paint0_linear_160_19357)"/>
<g id="Group_2">
<path id="Vector_2" d="M16.2139 4.88281H8.7876C6.73596 4.88281 5.06689 6.55187 5.06689 8.60351V15.3975C5.06689 17.4491 6.73596 19.1182 8.7876 19.1182H16.2139C18.2655 19.1182 19.9346 17.4491 19.9346 15.3975V8.60351C19.9346 6.55187 18.2655 4.88281 16.2139 4.88281ZM6.37944 8.60351C6.37944 7.27583 7.45992 6.19536 8.7876 6.19536H16.2139C17.5415 6.19536 18.622 7.27583 18.622 8.60351V15.3975C18.622 16.7252 17.5415 17.8056 16.2139 17.8056H8.7876C7.45992 17.8056 6.37944 16.7252 6.37944 15.3975V8.60351Z" fill="white"/>
<path id="Vector_3" d="M12.5004 15.4608C14.4083 15.4608 15.9613 13.9086 15.9613 11.9999C15.9613 10.0912 14.4091 8.53906 12.5004 8.53906C10.5917 8.53906 9.03955 10.0912 9.03955 11.9999C9.03955 13.9086 10.5917 15.4608 12.5004 15.4608ZM12.5004 9.85245C13.6852 9.85245 14.6488 10.816 14.6488 12.0008C14.6488 13.1855 13.6852 14.1491 12.5004 14.1491C11.3157 14.1491 10.3521 13.1855 10.3521 12.0008C10.3521 10.816 11.3157 9.85245 12.5004 9.85245Z" fill="white"/>
<path id="Vector_4" d="M16.2818 9.09789C16.7954 9.09789 17.214 8.67999 17.214 8.1654C17.214 7.65081 16.7963 7.23291 16.2818 7.23291C15.7674 7.23291 15.3496 7.65081 15.3496 8.1654C15.3496 8.67999 15.7674 9.09789 16.2818 9.09789Z" fill="white"/>
</g>
</g>
<defs>
<linearGradient id="paint0_linear_160_19357" x1="4.00629" y1="20.4937" x2="20.9937" y2="3.50713" gradientUnits="userSpaceOnUse">
<stop stop-color="#FAAD4F"/>
<stop offset="0.35" stop-color="#DD2A7B"/>
<stop offset="0.62" stop-color="#9537B0"/>
<stop offset="1" stop-color="#515BD4"/>
</linearGradient>
</defs>
</svg>
