<svg width="25" height="24" viewBox="0 0 25 24" fill="none" xmlns="http://www.w3.org/2000/svg">
<g id="Group">
<path id="Vector" d="M12.5273 0H12.4727C5.86036 0 0.5 5.36035 0.5 11.9727V12.0273C0.5 18.6397 5.86036 24 12.4727 24H12.5273C19.1396 24 24.5 18.6397 24.5 12.0273V11.9727C24.5 5.36035 19.1396 0 12.5273 0Z" fill="#007EBB"/>
<g id="Group_2">
<path id="Vector_2" d="M6.22324 7.97796C5.90718 7.6845 5.75 7.32126 5.75 6.88907C5.75 6.45688 5.90802 6.07766 6.22324 5.78337C6.5393 5.48992 6.94615 5.34277 7.44462 5.34277C7.94309 5.34277 8.33397 5.48992 8.64919 5.78337C8.96525 6.07682 9.12243 6.44595 9.12243 6.88907C9.12243 7.33219 8.96441 7.6845 8.64919 7.97796C8.33313 8.27141 7.93216 8.41855 7.44462 8.41855C6.95708 8.41855 6.5393 8.27141 6.22324 7.97796ZM8.85681 9.66131V18.6583H6.01478V9.66131H8.85681Z" fill="#FEFFFC"/>
<path id="Vector_3" d="M18.3214 10.55C18.9411 11.2227 19.2505 12.1459 19.2505 13.3214V18.4993H16.5506V13.6863C16.5506 13.0936 16.3967 12.6328 16.0898 12.3048C15.7829 11.9769 15.3692 11.8121 14.8513 11.8121C14.3333 11.8121 13.9196 11.9761 13.6127 12.3048C13.3058 12.6328 13.1519 13.0936 13.1519 13.6863V18.4993H10.436V9.63603H13.1519V10.8115C13.4269 10.4197 13.7977 10.1103 14.2635 9.8824C14.7293 9.65453 15.2532 9.54102 15.8359 9.54102C16.8735 9.54102 17.7025 9.87735 18.3214 10.55Z" fill="#FEFFFC"/>
</g>
</g>
</svg>
